<svg xmlns="http://www.w3.org/2000/svg" viewBox="0 0 1440 320" width="1440" height="320">
  <rect width="1440" height="320" fill="#E30613"/>
  <circle cx="200" cy="80" r="60" fill="#ffffff" opacity="0.08"/>
  <circle cx="1100" cy="150" r="80" fill="#ffffff" opacity="0.05"/>
  <circle cx="800" cy="40" r="40" fill="#ffffff" opacity="0.1"/>
  <circle cx="1350" cy="90" r="50" fill="#ffffff" opacity="0.06"/>
  <path fill="#FFE800" d="M0,128L80,144C160,160,320,192,480,197.3C640,203,800,181,960,154.7C1120,128,1280,96,1360,80L1440,64L1440,320L1360,320C1280,320,1120,320,960,320C800,320,640,320,480,320C320,320,160,320,80,320L0,320Z"/>
  <path fill="#ffffff" d="M0,148L80,164C160,180,320,212,480,217.3C640,223,800,201,960,174.7C1120,148,1280,116,1360,100L1440,84L1440,320L1360,320C1280,320,1120,320,960,320C800,320,640,320,480,320C320,320,160,320,80,320L0,320Z"/>
</svg>
